<svg xmlns="http://www.w3.org/2000/svg" x="0px" y="0px" width="100%" viewBox="0 0 779 203" style="vertical-align: middle; max-width: 100%; width: 100%;"><g>
	<path fill="#E2F6F7" d="M385.972,149.358c0.734,17.486-12.844,32.256-30.33,32.991L44.679,195.423    c-17.485,0.735-32.256-12.845-32.991-30.329l0,0c-0.735-17.486,12.843-32.257,30.329-32.991l310.962-13.074    C370.466,118.294,385.236,131.871,385.972,149.358L385.972,149.358z"></path>
	<path fill="rgb(0,0,0)" d="M43.325,196.951c-17.831,0-32.386-13.966-33.135-31.794c-0.373-8.858,2.727-17.33,8.726-23.856    s14.181-10.325,23.039-10.697l310.962-13.074c18.449-0.789,33.784,13.466,34.554,31.766c0.768,18.283-13.482,33.783-31.766,34.553    L44.742,196.922C44.269,196.941,43.794,196.951,43.325,196.951z M354.333,120.5c-0.428,0-0.858,0.009-1.29,0.027L42.081,133.602    c-8.057,0.338-15.499,3.794-20.956,9.729c-5.458,5.937-8.276,13.643-7.938,21.7c0.699,16.645,14.637,29.62,31.429,28.893    l310.962-13.073c16.631-0.699,29.593-14.798,28.895-31.43C383.791,133.204,370.552,120.5,354.333,120.5z"></path>
</g><g>
	<path fill="#E2F6F7" d="M768.837,18.708c0.243,5.793-4.257,10.688-10.05,10.932L583.94,36.991    c-5.794,0.243-10.688-4.256-10.931-10.05l0,0c-0.244-5.794,4.256-10.688,10.049-10.932l174.846-7.351    C763.698,8.415,768.593,12.915,768.837,18.708L768.837,18.708z"></path>
	<path fill="rgb(0,0,0)" d="M583.492,38.5c-6.449,0-11.712-5.05-11.981-11.497c-0.135-3.202,0.985-6.265,3.155-8.625    c2.169-2.36,5.127-3.733,8.329-3.868l174.846-7.351c6.674-0.28,12.216,4.869,12.495,11.486c0.277,6.611-4.875,12.215-11.485,12.493    l-174.847,7.351C583.832,38.497,583.662,38.5,583.492,38.5z M758.353,10.148c-0.128,0-0.257,0.002-0.386,0.008l-174.845,7.351    c-2.402,0.101-4.62,1.131-6.247,2.901c-1.628,1.77-2.468,4.067-2.366,6.469c0.208,4.963,4.375,8.82,9.369,8.614l174.846-7.351    c4.958-0.208,8.822-4.412,8.614-9.37C767.135,13.936,763.188,10.148,758.353,10.148z"></path>
</g><g>
	<circle fill="#E2F6F7" cx="733" cy="169" r="24"></circle>
	<path fill="rgb(0,0,0)" d="M733,194.5c-14.061,0-25.5-11.439-25.5-25.5s11.439-25.5,25.5-25.5s25.5,11.439,25.5,25.5    S747.061,194.5,733,194.5z M733,146.5c-12.406,0-22.5,10.094-22.5,22.5s10.094,22.5,22.5,22.5s22.5-10.094,22.5-22.5    S745.406,146.5,733,146.5z"></path>
</g><g>
	<circle fill="#FFE709" cx="49" cy="39" r="19"></circle>
	<path fill="rgb(0,0,0)" d="M49,59.5c-11.304,0-20.5-9.196-20.5-20.5S37.696,18.5,49,18.5S69.5,27.696,69.5,39S60.304,59.5,49,59.5z     M49,21.5c-9.649,0-17.5,7.851-17.5,17.5S39.351,56.5,49,56.5S66.5,48.649,66.5,39S58.649,21.5,49,21.5z"></path>
</g><g>
	<path fill="#FFE709" d="M713.608,90.611c1.172,27.866-20.469,51.404-48.334,52.576l-495.563,20.835    c-27.866,1.171-51.405-20.469-52.577-48.335l0,0c-1.171-27.865,20.468-51.405,48.334-52.576l495.562-20.834    C688.897,41.105,712.437,62.745,713.608,90.611L713.608,90.611z"></path>
	<path fill="rgb(0,0,0)" d="M167.555,165.568c-27.939,0-50.744-21.883-51.918-49.818c-0.583-13.877,4.272-27.151,13.672-37.376    c9.4-10.226,22.22-16.178,36.098-16.761l495.561-20.834c28.933-1.228,52.934,21.1,54.14,49.77    c0.583,13.877-4.272,27.151-13.673,37.376c-9.4,10.226-22.22,16.178-36.098,16.762l-495.562,20.835    C169.033,165.553,168.291,165.568,167.555,165.568z M663.189,43.732c-0.693,0-1.396,0.015-2.096,0.044L165.533,64.61    c-13.077,0.55-25.157,6.159-34.015,15.794c-8.858,9.635-13.434,22.144-12.884,35.22c1.106,26.324,22.595,46.944,48.921,46.944    c0.694,0,1.394-0.015,2.094-0.045l495.562-20.835c13.077-0.55,25.157-6.159,34.015-15.794c8.858-9.635,13.435-22.144,12.884-35.22    C711.003,64.352,689.515,43.732,663.189,43.732z"></path>
</g></svg>